<?xml version="1.0" encoding="iso-8859-1"?>
<!-- Generator: Adobe Illustrator 19.0.0, SVG Export Plug-In . SVG Version: 6.00 Build 0)  -->
<svg version="1.1" id="Layer_1" xmlns="http://www.w3.org/2000/svg" xmlns:xlink="http://www.w3.org/1999/xlink" x="0px" y="0px"
	 viewBox="0 0 512 512" style="enable-background:new 0 0 512 512;" xml:space="preserve">
<path id="SVGCleanerId_0" style="fill:#EBEBD3;" d="M57.256,88.086v295.088v103.544c0,9.691,7.884,17.574,17.574,17.574h136.576
	h89.187H437.17c9.691,0,17.574-7.884,17.574-17.574V383.174V88.086H57.256z"/>
<g>
	<path id="SVGCleanerId_0_1_" style="fill:#EBEBD3;" d="M57.256,88.086v295.088v103.544c0,9.691,7.884,17.574,17.574,17.574h136.576
		h89.187H437.17c9.691,0,17.574-7.884,17.574-17.574V383.174V88.086H57.256z"/>
</g>
<g>
	<path style="fill:#C13530;" d="M189.385,222.414v-31.925c0-3.65,2.96-6.61,6.61-6.61h31.925c3.65,0,6.61,2.96,6.61,6.61v31.925
		c0,3.65-2.96,6.61-6.61,6.61h-31.925C192.345,229.024,189.385,226.064,189.385,222.414z"/>
	<path style="fill:#C13530;" d="M277.471,222.414v-31.925c0-3.65,2.96-6.61,6.61-6.61h31.925c3.65,0,6.61,2.96,6.61,6.61v31.925
		c0,3.65-2.96,6.61-6.61,6.61h-31.925C280.431,229.024,277.471,226.064,277.471,222.414z"/>
	<path style="fill:#C13530;" d="M365.557,222.414v-31.925c0-3.65,2.96-6.61,6.61-6.61h31.925c3.65,0,6.61,2.96,6.61,6.61v31.925
		c0,3.65-2.96,6.61-6.61,6.61h-31.925C368.517,229.024,365.557,226.064,365.557,222.414z"/>
</g>
<path style="fill:#DDB247;" d="M189.385,310.5v-31.925c0-3.65,2.96-6.61,6.61-6.61h31.925c3.65,0,6.61,2.96,6.61,6.61V310.5
	c0,3.65-2.96,6.61-6.61,6.61h-31.925C192.345,317.11,189.385,314.15,189.385,310.5z"/>
<g>
	<path style="fill:#C13530;" d="M277.471,310.5v-31.925c0-3.65,2.96-6.61,6.61-6.61h31.925c3.65,0,6.61,2.96,6.61,6.61V310.5
		c0,3.65-2.96,6.61-6.61,6.61h-31.925C280.431,317.11,277.471,314.15,277.471,310.5z"/>
	<path style="fill:#C13530;" d="M365.557,310.5v-31.925c0-3.65,2.96-6.61,6.61-6.61h31.925c3.65,0,6.61,2.96,6.61,6.61V310.5
		c0,3.65-2.96,6.61-6.61,6.61h-31.925C368.517,317.11,365.557,314.15,365.557,310.5z"/>
</g>
<path style="fill:#DDDCC5;" d="M270.818,485.541c-22.277-0.313-40.173-18.461-40.173-40.74v-73.61
	c0-6.198-5.447-10.985-11.593-10.189l-71.6,9.266c-12.504,1.617-23.582-8.119-23.582-20.727V88.086H57.256v293.852v1.236v0.113H57.4
	l154.006,121.005h89.187H437.17c9.217,0,16.784-7.136,17.503-16.172L270.818,485.541z"/>
<path style="fill:#9B9A84;" d="M201.06,382.073H57.256v0.819l154.509,121.4h0.742V393.521
	C212.508,387.199,207.382,382.073,201.06,382.073z"/>
<g>
	<path style="fill:#C13530;" d="M101.299,222.414v-31.925c0-3.65,2.96-6.61,6.61-6.61h31.925c3.65,0,6.61,2.96,6.61,6.61v31.925
		c0,3.65-2.96,6.61-6.61,6.61h-31.925C104.259,229.024,101.299,226.064,101.299,222.414z"/>
	<path style="fill:#C13530;" d="M101.299,310.5v-31.925c0-3.65,2.96-6.61,6.61-6.61h31.925c3.65,0,6.61,2.96,6.61,6.61V310.5
		c0,3.65-2.96,6.61-6.61,6.61h-31.925C104.259,317.11,101.299,314.15,101.299,310.5z"/>
</g>
<path style="fill:#083D77;" d="M57.256,118.916V47.303c0-9.691,7.884-17.574,17.574-17.574h362.34
	c9.691,0,17.574,7.884,17.574,17.574v71.613H57.256z"/>
<path style="fill:#05385E;" d="M141.445,29.729H74.83c-9.691,0-17.574,7.884-17.574,17.574v71.613h66.615V47.303
	C123.871,37.613,131.755,29.729,141.445,29.729z"/>
<path d="M101.849,236.731h44.043c4.562,0,8.258-3.696,8.258-8.258V184.43c0-4.562-3.696-8.258-8.258-8.258h-44.043
	c-4.562,0-8.258,3.696-8.258,8.258v44.043C93.591,233.035,97.288,236.731,101.849,236.731z M110.108,192.688h27.527v27.527h-27.527
	V192.688z"/>
<path d="M189.935,236.731h44.043c4.562,0,8.258-3.696,8.258-8.258V184.43c0-4.562-3.696-8.258-8.258-8.258h-44.043
	c-4.562,0-8.258,3.696-8.258,8.258v44.043C181.677,233.035,185.374,236.731,189.935,236.731z M198.194,192.688h27.527v27.527
	h-27.527V192.688z"/>
<path d="M278.022,236.731h44.043c4.562,0,8.258-3.696,8.258-8.258V184.43c0-4.562-3.696-8.258-8.258-8.258h-44.043
	c-4.562,0-8.258,3.696-8.258,8.258v44.043C269.763,233.035,273.46,236.731,278.022,236.731z M286.28,192.688h27.527v27.527H286.28
	V192.688z"/>
<path d="M366.108,236.731h44.043c4.562,0,8.258-3.696,8.258-8.258V184.43c0-4.562-3.696-8.258-8.258-8.258h-44.043
	c-4.562,0-8.258,3.696-8.258,8.258v44.043C357.849,233.035,361.546,236.731,366.108,236.731z M374.366,192.688h27.527v27.527
	h-27.527V192.688z"/>
<path d="M101.849,324.817h44.043c4.562,0,8.258-3.696,8.258-8.258v-44.043c0-4.562-3.696-8.258-8.258-8.258h-44.043
	c-4.562,0-8.258,3.696-8.258,8.258v44.043C93.591,321.121,97.288,324.817,101.849,324.817z M110.108,280.774h27.527v27.527h-27.527
	V280.774z"/>
<path d="M189.935,324.817h44.043c4.562,0,8.258-3.696,8.258-8.258v-44.043c0-4.562-3.696-8.258-8.258-8.258h-44.043
	c-4.562,0-8.258,3.696-8.258,8.258v44.043C181.677,321.121,185.374,324.817,189.935,324.817z M198.194,280.774h27.527v27.527
	h-27.527V280.774z"/>
<path d="M278.022,324.817h44.043c4.562,0,8.258-3.696,8.258-8.258v-44.043c0-4.562-3.696-8.258-8.258-8.258h-44.043
	c-4.562,0-8.258,3.696-8.258,8.258v44.043C269.763,321.121,273.46,324.817,278.022,324.817z M286.28,280.774h27.527v27.527H286.28
	V280.774z"/>
<path d="M366.108,324.817h44.043c4.562,0,8.258-3.696,8.258-8.258v-44.043c0-4.562-3.696-8.258-8.258-8.258h-44.043
	c-4.562,0-8.258,3.696-8.258,8.258v44.043C357.849,321.121,361.546,324.817,366.108,324.817z M374.366,280.774h27.527v27.527
	h-27.527V280.774z"/>
<path d="M437.17,22.022h-40.783V8.258c0-4.562-3.696-8.258-8.258-8.258c-4.562,0-8.258,3.696-8.258,8.258v13.763h-27.527V8.258
	c0-4.562-3.696-8.258-8.258-8.258s-8.258,3.696-8.258,8.258v13.763h-27.527V8.258c0-4.562-3.696-8.258-8.258-8.258
	c-4.562,0-8.258,3.696-8.258,8.258v13.763h-27.527V8.258C264.258,3.696,260.562,0,256,0c-4.562,0-8.258,3.696-8.258,8.258v13.763
	h-27.527V8.258c0-4.562-3.696-8.258-8.258-8.258c-4.562,0-8.258,3.696-8.258,8.258v13.763h-27.527V8.258
	c0-4.562-3.696-8.258-8.258-8.258c-4.562,0-8.258,3.696-8.258,8.258v13.763h-27.527V8.258c0-4.562-3.696-8.258-8.258-8.258
	s-8.258,3.696-8.258,8.258v13.763H74.83c-13.941,0-25.282,11.341-25.282,25.282v439.415C49.548,500.659,60.889,512,74.83,512h362.34
	c13.941,0,25.282-11.341,25.282-25.282V47.303C462.452,33.363,451.111,22.022,437.17,22.022z M74.83,495.484
	c-4.834,0-8.766-3.932-8.766-8.766v-87.104l122.016,95.87H74.83z M203.699,486.751l-122.016-95.87h122.016V486.751z
	 M445.935,110.108h-80.648c-4.561,0-8.258,3.697-8.258,8.258l0,0c0,4.561,3.697,8.258,8.258,8.258h80.648v360.095
	c0,4.841-3.924,8.766-8.766,8.766H220.215v-112.86c0-4.561-3.697-8.258-8.258-8.258H66.065V126.624h254.148
	c4.561,0,8.258-3.697,8.258-8.258l0,0c0-4.561-3.697-8.258-8.258-8.258H66.065V47.303c0-4.841,3.924-8.766,8.766-8.766h40.783
	v13.418c0,4.522,3.485,8.465,8.005,8.6c4.676,0.14,8.511-3.609,8.511-8.255V38.538h27.527v13.418c0,4.522,3.485,8.465,8.005,8.6
	c4.676,0.14,8.511-3.609,8.511-8.255V38.538h27.527v13.418c0,4.522,3.485,8.465,8.005,8.6c4.676,0.14,8.511-3.609,8.511-8.255
	V38.538h27.527v13.418c0,4.522,3.485,8.465,8.005,8.6c4.676,0.14,8.511-3.609,8.511-8.255V38.538h27.527v13.418
	c0,4.522,3.485,8.465,8.005,8.6c4.676,0.14,8.511-3.609,8.511-8.255V38.538h27.527v13.763c0,3.408,2.065,6.332,5.011,7.593
	c1.877-0.218,3.795-0.117,5.63,0.313c3.398-1.023,5.875-4.173,5.875-7.906V38.538h27.527v13.418c0,4.522,3.485,8.465,8.005,8.6
	c4.676,0.14,8.511-3.609,8.511-8.255V38.538h40.783c4.841,0,8.766,3.924,8.766,8.766V110.108z"/>
<g>
</g>
<g>
</g>
<g>
</g>
<g>
</g>
<g>
</g>
<g>
</g>
<g>
</g>
<g>
</g>
<g>
</g>
<g>
</g>
<g>
</g>
<g>
</g>
<g>
</g>
<g>
</g>
<g>
</g>
</svg>
